<svg xmlns="http://www.w3.org/2000/svg" viewBox="0 0 511.75 168.24"><defs><style>.cls-1{fill:teal;}</style></defs><title>Asset 1</title><g id="Layer_2" data-name="Layer 2"><g id="Layer_1-2" data-name="Layer 1"><path d="M0,76.5,143.4,2.64V24L22.56,84.54v.61L143.4,145.73v21.32L0,93.19Z"/><path d="M511.75,93.44,368.36,167V145.67L490.12,85.1v-.62L368.36,23.91V2.58L511.75,76.14Z"/><rect class="cls-1" x="279.98" y="14.7" width="36.6" height="22.75"/><rect class="cls-1" x="272.07" y="32.5" width="30.66" height="21.76"/><rect class="cls-1" x="264.16" y="37.45" width="27.69" height="30.66"/><rect class="cls-1" x="254.27" y="54.26" width="28.68" height="30.66"/><rect class="cls-1" x="246.36" y="68.11" width="25.72" height="30.66"/><rect class="cls-1" x="230.53" y="81.96" width="29.67" height="29.67"/><rect class="cls-1" x="217.67" y="107.67" width="35.61" height="17.8"/><rect class="cls-1" x="225.59" y="100.75" width="12.86" height="12.86"/><rect class="cls-1" x="213.72" y="119.54" width="29.67" height="18.79"/><rect class="cls-1" x="206.79" y="128.44" width="26.7" height="20.77"/><rect class="cls-1" x="196.9" y="138.33" width="34.62" height="16.81"/><path d="M171.47,155.51,264.82,19v-.75H179.45V0H293V13.23l-92.86,136V150h94.11v18.22H171.47Z"/><path d="M219.93,155.51,313.29,19v-.75H227.92V0H341.5V13.23l-92.86,136V150h94.1v18.22H219.93Z"/></g></g></svg>